<?xml version="1.0" encoding="UTF-8" standalone="no"?>
<!-- Generator: Adobe Illustrator 22.1.0, SVG Export Plug-In . SVG Version: 6.00 Build 0)  -->

<svg
   xmlns:dc="http://purl.org/dc/elements/1.1/"
   xmlns:cc="http://creativecommons.org/ns#"
   xmlns:rdf="http://www.w3.org/1999/02/22-rdf-syntax-ns#"
   xmlns:svg="http://www.w3.org/2000/svg"
   xmlns="http://www.w3.org/2000/svg"
   xmlns:sodipodi="http://sodipodi.sourceforge.net/DTD/sodipodi-0.dtd"
   xmlns:inkscape="http://www.inkscape.org/namespaces/inkscape"
   version="1.1"
   id="Calque_1"
   x="0px"
   y="0px"
   viewBox="0 0 283.465 141.732"
   style="enable-background:new 0 0 283.465 141.732;"
   xml:space="preserve"
   sodipodi:docname="logo.svg"
   inkscape:version="0.92.3 (2405546, 2018-03-11)"><metadata
   id="metadata3853"><rdf:RDF><cc:Work
       rdf:about=""><dc:format>image/svg+xml</dc:format><dc:type
         rdf:resource="http://purl.org/dc/dcmitype/StillImage" /><dc:title></dc:title></cc:Work></rdf:RDF></metadata><defs
   id="defs3851" /><sodipodi:namedview
   pagecolor="#ffffff"
   bordercolor="#666666"
   borderopacity="1"
   objecttolerance="10"
   gridtolerance="10"
   guidetolerance="10"
   inkscape:pageopacity="0"
   inkscape:pageshadow="2"
   inkscape:window-width="1920"
   inkscape:window-height="986"
   id="namedview3849"
   showgrid="false"
   showguides="false"
   inkscape:pagecheckerboard="true"
   inkscape:zoom="10.7668"
   inkscape:cx="175.95721"
   inkscape:cy="96.826155"
   inkscape:window-x="-11"
   inkscape:window-y="-11"
   inkscape:window-maximized="1"
   inkscape:current-layer="Calque_1" />
<style
   type="text/css"
   id="style3784">
	.st0{fill:#FFFFFF;}
</style>
<g
   id="g3794">
	<path
   class="st0"
   d="M68.535,88.587c-2.976,2.917-7.024,4.762-11.547,4.762H55.5v5.952l-5.952,5.952H40.62V60.612l5.952-5.952   H62.94c9.048,0,16.368,7.321,16.368,16.368c0,4.524-1.845,8.631-4.821,11.607C73.535,83.587,69.547,87.575,68.535,88.587z    M48.06,56.148v41.665h5.952V85.908h8.928c8.214,0,14.881-6.666,14.881-14.88s-6.667-14.88-14.881-14.88H48.06z M71.868,71.028   c0-4.94-3.988-8.928-8.928-8.928h-8.928v17.856h8.928C67.88,79.956,71.868,75.968,71.868,71.028z M55.5,78.468V69.54h1.488   c4.107,0,7.44,3.333,7.44,7.44c0,0.476-0.059,0.952-0.119,1.369c-0.476,0.059-0.893,0.119-1.369,0.119H55.5z"
   id="path3786" />
	<path
   class="st0"
   d="M114.067,101.325c-2.44,2.44-5.773,3.928-9.464,3.928c-6.369,0-11.666-4.405-13.035-10.357l5.952-5.952   l4.881-1.726c-6.369-1.072-11.19-6.548-11.19-13.214c0-3.69,1.488-7.023,3.928-9.464c1.012-1.012,4.94-4.94,5.952-5.952   c2.44-2.44,5.774-3.928,9.464-3.928c6.369,0,11.666,4.405,13.035,10.357l-5.952,5.952l-4.881,1.726   c6.369,1.072,11.19,6.547,11.19,13.214c0,3.69-1.488,7.024-3.928,9.464C119.007,96.384,115.079,100.313,114.067,101.325z    M116.151,66.088l5.654-2.024c-1.667-4.583-6.071-7.916-11.249-7.916c-6.607,0-11.904,5.357-11.904,11.904   c0,6.607,5.298,11.904,11.904,11.904c3.273,0,5.952,2.678,5.952,5.952s-2.678,5.952-5.952,5.952c-2.619,0-4.821-1.667-5.595-3.988   l-5.655,2.024c1.667,4.583,6.071,7.916,11.25,7.916c6.547,0,11.904-5.298,11.904-11.904c0-6.547-5.357-11.904-11.904-11.904   c-3.274,0-5.952-2.678-5.952-5.952c0-3.274,2.678-5.952,5.952-5.952C113.115,62.1,115.377,63.767,116.151,66.088z M106.508,69.957   c0.476,0.952,1.19,1.667,2.143,2.143C108.175,71.147,107.46,70.433,106.508,69.957z M108.651,89.956   c-0.476-0.952-1.191-1.667-2.143-2.143C106.984,88.766,107.698,89.48,108.651,89.956z"
   id="path3788" />
	<path
   class="st0"
   d="M175.373,101.384c-2.441,2.381-5.774,3.869-9.464,3.869h-25.296V60.612l5.952-5.952h22.321   c7.381,0,13.393,6.012,13.393,13.393c0,2.678-0.774,5.178-2.143,7.321c3.096,2.44,5.119,6.25,5.119,10.535   c0,3.69-1.488,7.024-3.929,9.464C180.313,96.384,176.385,100.372,175.373,101.384z M180.79,68.052   c0-6.548-5.357-11.904-11.904-11.904h-20.833v41.665h23.809c6.548,0,11.904-5.298,11.904-11.904c0-4.345-2.321-8.095-5.774-10.178   C179.718,73.647,180.79,70.969,180.79,68.052z M154.005,62.1v11.904h14.88c3.274,0,5.952-2.678,5.952-5.952   c0-3.274-2.679-5.952-5.952-5.952H154.005z M177.813,85.908c0-3.274-2.678-5.952-5.952-5.952h-17.856v11.904h17.856   C175.135,91.861,177.813,89.182,177.813,85.908z M155.433,87.397c3.571,0.059,6.964,0,10.476,0c1.964,0,3.572,1.25,4.226,2.976   h-14.702V87.397z M167.159,72.516h-11.666V69.54h7.441C164.897,69.54,166.505,70.79,167.159,72.516z"
   id="path3790" />
	<path
   class="st0"
   d="M240.607,63.588l-5.952,5.952h-17.857v7.44h17.857v8.928l-5.952,5.952h-11.904v7.44l-5.952,5.952h-8.928   V60.612l5.952-5.952h32.737V63.588z M239.119,62.1v-5.952h-29.761v41.665h5.952V84.421h17.856v-5.952h-17.856V62.1H239.119z"
   id="path3792" />
</g>
<g
   id="g3844">
	<path
   class="st0"
   d="M43.492,117.437v1.92h-1.44v-7.2h2.64c1.459,0,2.64,1.181,2.64,2.64c0,1.459-1.181,2.64-2.64,2.64H43.492z    M44.692,115.997c0.662,0,1.2-0.537,1.2-1.2c0-0.662-0.538-1.2-1.2-1.2h-1.2v2.4H44.692z"
   id="path3796" />
	<path
   class="st0"
   d="M53.716,118.157h-3.705l-0.653,1.2h-1.642l4.147-7.593l4.157,7.593h-1.642L53.716,118.157z M52.929,116.717   l-1.066-1.958l-1.065,1.958H52.929z"
   id="path3798" />
	<path
   class="st0"
   d="M63.787,119.357h-1.718l-1.257-1.92h-1.133v1.92h-1.44v-7.2h2.64c1.459,0,2.64,1.181,2.64,2.64   c0,0.95-0.499,1.776-1.248,2.246L63.787,119.357z M60.878,115.997c0.662,0,1.2-0.537,1.2-1.2c0-0.662-0.538-1.2-1.2-1.2h-1.2v2.4   H60.878z"
   id="path3800" />
	<path
   class="st0"
   d="M67.972,119.357h-1.44v-7.2h1.44V119.357z"
   id="path3802" />
	<path
   class="st0"
   d="M75.076,117.197c0,1.19-0.97,2.16-2.16,2.16c-1.027,0-1.882-0.71-2.103-1.67l1.382-0.49   c0,0.394,0.326,0.72,0.72,0.72c0.393,0,0.72-0.326,0.72-0.72c0-0.393-0.327-0.72-0.72-0.72c-1.19,0-2.16-0.969-2.16-2.16   s0.97-2.16,2.16-2.16c1.027,0,1.882,0.71,2.102,1.67l-1.382,0.49c0-0.394-0.327-0.72-0.72-0.72c-0.394,0-0.72,0.326-0.72,0.72   c0,0.393,0.326,0.72,0.72,0.72C74.107,115.037,75.076,116.006,75.076,117.197z"
   id="path3804" />
	<path
   class="st0"
   d="M85.934,117.197c0,1.19-0.97,2.16-2.16,2.16c-1.027,0-1.882-0.71-2.103-1.67l1.382-0.49   c0,0.394,0.326,0.72,0.72,0.72c0.393,0,0.72-0.326,0.72-0.72c0-0.393-0.327-0.72-0.72-0.72c-1.19,0-2.16-0.969-2.16-2.16   s0.97-2.16,2.16-2.16c1.027,0,1.882,0.71,2.102,1.67l-1.382,0.49c0-0.394-0.327-0.72-0.72-0.72c-0.394,0-0.72,0.326-0.72,0.72   c0,0.393,0.326,0.72,0.72,0.72C84.964,115.037,85.934,116.006,85.934,117.197z"
   id="path3806" />
	<path
   class="st0"
   d="M93.086,118.157H89.38l-0.653,1.2h-1.642l4.147-7.593l4.157,7.593h-1.642L93.086,118.157z M92.298,116.717   l-1.066-1.958l-1.065,1.958H92.298z"
   id="path3808" />
	<path
   class="st0"
   d="M99.863,119.357h-0.432l-3.936-7.2h1.642l2.515,4.598l2.506-4.598h1.642L99.863,119.357z"
   id="path3810" />
	<path
   class="st0"
   d="M108.752,118.157h-3.705l-0.653,1.2h-1.642l4.147-7.593l4.157,7.593h-1.642L108.752,118.157z M107.965,116.717   l-1.066-1.958l-1.065,1.958H107.965z"
   id="path3812" />
	<path
   class="st0"
   d="M111.642,112.157h6.24v1.44h-2.4v5.76h-1.44v-5.76h-2.4V112.157z"
   id="path3814" />
	<path
   class="st0"
   d="M120.484,112.157h5.28v1.44h-3.84v2.16h2.88v1.44h-2.88v0.72h3.84v1.44h-5.28V112.157z"
   id="path3816" />
	<path
   class="st0"
   d="M139.501,117.197c0,1.19-0.969,2.16-2.16,2.16h-4.08v-7.2h3.6c1.19,0,2.16,0.97,2.16,2.16   c0,0.432-0.125,0.835-0.346,1.181C139.175,115.891,139.501,116.505,139.501,117.197z M137.341,117.917   c0.393,0,0.72-0.326,0.72-0.72c0-0.393-0.326-0.72-0.72-0.72h-2.65v1.44H137.341z M136.861,115.037c0.393,0,0.72-0.327,0.72-0.72   c0-0.394-0.326-0.72-0.72-0.72h-2.16v1.44H136.861z"
   id="path3818" />
	<path
   class="st0"
   d="M144.839,119.357c-1.988,0-3.6-1.613-3.6-3.6c0-1.987,1.613-3.6,3.6-3.6c1.987,0,3.6,1.613,3.6,3.6   C148.439,117.744,146.826,119.357,144.839,119.357z M142.679,115.757c0,1.191,0.969,2.16,2.16,2.16c1.19,0,2.16-0.969,2.16-2.16   c0-1.19-0.97-2.16-2.16-2.16C143.648,113.597,142.679,114.566,142.679,115.757z"
   id="path3820" />
	<path
   class="st0"
   d="M149.61,112.157h1.699l1.354,2.15l1.344-2.15h1.699l-2.199,3.504l2.323,3.696h-1.699l-1.469-2.342   l-1.469,2.342h-1.699l2.314-3.696L149.61,112.157z"
   id="path3822" />
	<path
   class="st0"
   d="M158.336,112.157h5.28v1.44h-3.84v2.16h2.88v1.44h-2.88v0.72h3.84v1.44h-5.28V112.157z"
   id="path3824" />
	<path
   class="st0"
   d="M171.113,112.157h5.28v1.44h-3.84v2.16h2.88v1.44h-2.88v2.16h-1.44V112.157z"
   id="path3826" />
	<path
   class="st0"
   d="M184.63,119.357h-1.719l-1.257-1.92h-1.133v1.92h-1.44v-7.2h2.64c1.459,0,2.64,1.181,2.64,2.64   c0,0.95-0.499,1.776-1.248,2.246L184.63,119.357z M181.722,115.997c0.662,0,1.2-0.537,1.2-1.2c0-0.662-0.538-1.2-1.2-1.2h-1.2v2.4   H181.722z"
   id="path3828" />
	<path
   class="st0"
   d="M192.032,118.157h-3.706l-0.652,1.2h-1.641l4.147-7.593l4.156,7.593h-1.641L192.032,118.157z M191.245,116.717   l-1.066-1.958l-1.066,1.958H191.245z"
   id="path3830" />
	<path
   class="st0"
   d="M196.553,112.157h0.384l4.416,4.205v-4.205h1.44v7.2H202.4l-4.406-4.205v4.205h-1.44V112.157z"
   id="path3832" />
	<path
   class="st0"
   d="M210.665,116.861l1.142,0.873l-0.144,0.192c-0.566,0.749-1.411,1.267-2.391,1.402v0.989h-1.199v-0.72h0.239   v-0.269c-1.756-0.24-3.119-1.747-3.119-3.571c0-1.987,1.613-3.6,3.599-3.6c1.171,0,2.217,0.566,2.871,1.43l0.144,0.192   l-1.142,0.874l-0.144-0.192c-0.394-0.528-1.017-0.864-1.728-0.864c-1.19,0-2.159,0.969-2.159,2.16c0,1.191,0.969,2.16,2.159,2.16   c0.711,0,1.334-0.336,1.728-0.864L210.665,116.861z"
   id="path3834" />
	<path
   class="st0"
   d="M218.681,118.157h-3.706l-0.652,1.2h-1.642l4.148-7.593l4.156,7.593h-1.641L218.681,118.157z M217.894,116.717   l-1.066-1.958l-1.066,1.958H217.894z"
   id="path3836" />
	<path
   class="st0"
   d="M224.643,119.357h-1.44v-7.2h1.44V119.357z"
   id="path3838" />
	<path
   class="st0"
   d="M231.757,117.197c0,1.19-0.97,2.16-2.16,2.16c-1.028,0-1.882-0.71-2.103-1.67l1.383-0.49   c0,0.394,0.326,0.72,0.72,0.72c0.394,0,0.72-0.326,0.72-0.72c0-0.393-0.326-0.72-0.72-0.72c-1.191,0-2.16-0.969-2.16-2.16   s0.969-2.16,2.16-2.16c1.027,0,1.881,0.71,2.102,1.67l-1.382,0.49c0-0.394-0.326-0.72-0.72-0.72c-0.394,0-0.72,0.326-0.72,0.72   c0,0.393,0.326,0.72,0.72,0.72C230.787,115.037,231.757,116.006,231.757,117.197z"
   id="path3840" />
	<path
   class="st0"
   d="M234.445,112.157h5.28v1.44h-3.84v2.16h2.88v1.44h-2.88v0.72h3.84v1.44h-5.28V112.157z"
   id="path3842" />
</g>
<path
   class="st0"
   d="m 165.095,16.57 c -1.251,-0.943 -1.181,-1.653 -2.27,-0.285 -0.336,0.423 -2.57954,2.532172 -3.03754,2.803172 -4.26933,1.901667 -6.52358,3.21171 -10.41546,5.438828 -0.52,0.287 -1.553,0.077 -2.134,-0.266 -1.219,-0.719 -2.367,-1.27 -3.864,-1.242 -4.799,0.092 -9.077,-0.218 -13.875,-0.324 -1.393,-0.031 -2.767,-0.95 -4.101,-1.41 -1.233,-0.425 -2.935,-0.101 -4.3,0.31 -0.382,0.115 -1.137,-0.241 -1.378,-0.607 -0.357,-0.543 -0.474,-1.277 -0.577,-1.948 -0.432,-2.813 -2.022,-3.929 -4.83,-3.485 -1.599,0.253 -1.72,0.642 -3.284,1.052 -0.586,0.154 -2.894,0.015 -3.108,0.481 -0.344,0.748 0.015,1.817 0.935,2.22 0.427,0.187 0.628,1.432 0.938,1.798 0.715,0.846 1.194,1.423 2.156,1.956 2.828,1.567 0.366,5.784 -2.716,6.075 l -0.004,-0.06 V 28.63 c 0.034,-0.02 0.067,-0.04 0.1,-0.062 l 2.447,-1.699 c 0.615,-0.428 0.769,-1.281 0.342,-1.896 l -1.516,-2.184 c -0.23,-0.33 -0.583,-0.527 -0.956,-0.572 -0.127,-0.059 -0.262,-0.086 -0.407,-0.071 -1.218,0.129 -1.667,0.385 -3.012,0.833 -1.345,0.449 -1.731,4.422 -1.731,4.422 l -0.19,2.285 c -0.369,1.932 -0.934,3.64 -1.517,5.549 -0.211,0.691 0.047,1.971 0.479,2.188 0.629,0.317 1.647,0.679 2.28,0.27 1.489,-0.963 2.911,-2.742 4.34,-3.805 0.465,-0.346 1.629,-0.736 2.036,-0.553 1.683,0.76 2.327,1.355 3.475,2.435 1.94,1.827 2.131,1.951 2.728,2.291 3.015,1.718 5.897,2.196 9.018,3.715 0.983,0.479 1.361,1.023 1.095,2.216 -0.72,3.236 -2.106,7.048 -2.554,10.331 -0.193,1.413 -0.546,3.21 0.344,4.353 1.346,1.731 1.902,3.952 2.563,6.182 0.684,2.307 1.496,4.578 2.118,6.901 0.12,0.446 -0.225,1.295 -0.618,1.546 -1.014,0.648 -2.184,1.049 -3.274,1.584 -0.317,0.156 -0.844,0.484 -0.812,0.639 0.076,0.376 0.356,0.807 0.682,1.009 0.354,0.218 0.853,0.279 1.289,0.277 2.277,-0.01 4.555,-0.067 6.833,-0.095 2.083,-0.026 2.382,-0.319 2.244,-2.406 -0.032,-0.481 -0.246,-0.949 -0.377,-1.423 -0.498,-1.809 -1.069,-3.603 -1.475,-5.432 -0.502,-2.264 -0.548,-4.682 -1.369,-6.81 -1.03,-2.669 -1.543,-4.268 0.153,-7.405 0.134,-0.249 0.282,-0.787 0.381,-1.067 1.328,-3.779 2.672,-7.466 4.163,-11.179 0.603,-1.502 1.566,-3.052 2.789,-4.073 2.61,-2.177 5.455,-4.083 8.276,-5.991 5.418,-3.663 8.9572,-6.581731 12.70339,-9.779341 0.332,-0.224 4.46961,-1.807659 4.75461,-2.046659 0.909,-0.768 -1.166,-1.938 -1.96,-2.537 m -30.08,13.557 c -3.476,0.581 -6.772,-0.202 -9.177,-3.561 5.601,0.231 11.203,0.461 16.804,0.692 0.019,0.14 0.039,0.279 0.058,0.418 -2.556,0.844 -5.059,2.013 -7.685,2.451"
   id="path3846"
   inkscape:connector-curvature="0"
   style="fill:#ffffff"
   sodipodi:nodetypes="ccccccccccccccccccccccccccccccccccccccccccccccccccccccccccccccccc" />
</svg>