<svg id="Calque_1" data-name="Calque 1" xmlns="http://www.w3.org/2000/svg" viewBox="0 0 199.99 104.86"><title>PSFB_logo noir</title><path d="M68.54,88.59A16.48,16.48,0,0,1,57,93.35H55.5v6l-6,6H40.62V60.61l6-6H62.94a16.37,16.37,0,0,1,11.55,28ZM48.06,56.15V97.81H54V85.91h8.93a14.88,14.88,0,0,0,0-29.76ZM71.87,71a8.92,8.92,0,0,0-8.93-8.93H54V80h8.93A8.92,8.92,0,0,0,71.87,71ZM55.5,78.47V69.54H57A7.45,7.45,0,0,1,64.43,77a9.7,9.7,0,0,1-.12,1.37,10.56,10.56,0,0,1-1.37.12Z" transform="translate(-40.62 -15.46)"/><path d="M114.07,101.32a13.38,13.38,0,0,1-22.5-6.42l6-6,4.88-1.72a13.39,13.39,0,0,1-7.26-22.68l6-6A13.37,13.37,0,0,1,123.59,65l-6,6-4.88,1.72A13.39,13.39,0,0,1,120,95.37Zm2.08-35.23,5.65-2a11.92,11.92,0,0,0-23.15,4A11.87,11.87,0,0,0,110.56,80a6,6,0,0,1,0,11.9,5.87,5.87,0,0,1-5.6-4l-5.65,2A11.92,11.92,0,1,0,110.56,74a6,6,0,1,1,5.59-7.91ZM106.51,70a4.67,4.67,0,0,0,2.14,2.14A4.67,4.67,0,0,0,106.51,70Zm2.14,20a4.69,4.69,0,0,0-2.14-2.15A4.65,4.65,0,0,0,108.65,90Z" transform="translate(-40.62 -15.46)"/><path d="M175.37,101.38a13.47,13.47,0,0,1-9.46,3.87h-25.3V60.61l5.95-6h22.33a13.42,13.42,0,0,1,11.24,20.71,13.39,13.39,0,0,1,1.2,20C180.31,96.38,176.39,100.37,175.37,101.38Zm5.42-33.33a11.93,11.93,0,0,0-11.9-11.9H148.05V97.81h23.81A11.88,11.88,0,0,0,178,75.73,12,12,0,0,0,180.79,68.05ZM154,62.1V74h14.88a5.95,5.95,0,1,0,0-11.9Zm23.8,23.81a6,6,0,0,0-5.95-6H154v11.9h17.85A6,6,0,0,0,177.81,85.91ZM155.43,87.4c3.57.06,7,0,10.48,0a4.54,4.54,0,0,1,4.23,3H155.43Zm11.73-14.88H155.49v-3h7.44A4.52,4.52,0,0,1,167.16,72.52Z" transform="translate(-40.62 -15.46)"/><path d="M240.61,63.59l-6,6H216.8V77h17.86v8.93l-6,6H216.8V99.3l-6,6h-8.93V60.61l6-6h32.74Zm-1.49-1.49v-6H209.36V97.81h5.95V84.42h17.86v-6H215.31V62.1Z" transform="translate(-40.62 -15.46)"/><path d="M43.49,117.44v1.92H42.05v-7.2h2.64a2.64,2.64,0,0,1,0,5.28Zm1.2-1.44a1.2,1.2,0,0,0,0-2.4h-1.2V116Z" transform="translate(-40.62 -15.46)"/><path d="M53.72,118.16H50l-.65,1.2H47.72l4.14-7.6,4.16,7.6H54.38Zm-.79-1.44-1.07-2-1.06,2Z" transform="translate(-40.62 -15.46)"/><path d="M63.79,119.36H62.07l-1.26-1.92H59.68v1.92H58.24v-7.2h2.64A2.64,2.64,0,0,1,62.27,117ZM60.88,116a1.2,1.2,0,0,0,0-2.4h-1.2V116Z" transform="translate(-40.62 -15.46)"/><path d="M68,119.36H66.53v-7.2H68Z" transform="translate(-40.62 -15.46)"/><path d="M75.08,117.2a2.16,2.16,0,0,1-4.27.49l1.39-.49a.72.72,0,1,0,.72-.72,2.16,2.16,0,1,1,2.1-2.65l-1.38.49a.72.72,0,1,0-.72.72A2.16,2.16,0,0,1,75.08,117.2Z" transform="translate(-40.62 -15.46)"/><path d="M85.93,117.2a2.16,2.16,0,0,1-4.26.49l1.38-.49a.72.72,0,0,0,1.44,0,.72.72,0,0,0-.72-.72,2.16,2.16,0,1,1,2.11-2.65l-1.39.49a.72.72,0,0,0-1.44,0,.73.73,0,0,0,.72.72A2.16,2.16,0,0,1,85.93,117.2Z" transform="translate(-40.62 -15.46)"/><path d="M93.09,118.16H89.38l-.65,1.2H87.09l4.14-7.6,4.16,7.6H93.75Zm-.79-1.44-1.07-2-1.06,2Z" transform="translate(-40.62 -15.46)"/><path d="M99.86,119.36h-.43l-3.93-7.2h1.64l2.51,4.6,2.51-4.6h1.64Z" transform="translate(-40.62 -15.46)"/><path d="M108.75,118.16h-3.7l-.66,1.2h-1.64l4.15-7.6,4.16,7.6h-1.65Zm-.78-1.44-1.07-2-1.07,2Z" transform="translate(-40.62 -15.46)"/><path d="M111.64,112.16h6.24v1.44h-2.4v5.76H114V113.6h-2.4Z" transform="translate(-40.62 -15.46)"/><path d="M120.48,112.16h5.28v1.44h-3.84v2.16h2.88v1.44h-2.88v.72h3.84v1.44h-5.28Z" transform="translate(-40.62 -15.46)"/><path d="M139.5,117.2a2.16,2.16,0,0,1-2.16,2.16h-4.08v-7.2h3.6a2.16,2.16,0,0,1,2.16,2.16,2.2,2.2,0,0,1-.34,1.18A2.18,2.18,0,0,1,139.5,117.2Zm-2.16.72a.72.72,0,0,0,0-1.44h-2.65v1.44Zm-.48-2.88a.72.72,0,1,0,0-1.44H134.7V115Z" transform="translate(-40.62 -15.46)"/><path d="M144.84,119.36a3.6,3.6,0,1,1,3.6-3.6A3.6,3.6,0,0,1,144.84,119.36Zm-2.16-3.6a2.16,2.16,0,1,0,2.16-2.16A2.16,2.16,0,0,0,142.68,115.76Z" transform="translate(-40.62 -15.46)"/><path d="M149.61,112.16h1.7l1.35,2.15,1.35-2.15h1.7l-2.2,3.5,2.32,3.7h-1.7L152.66,117l-1.47,2.35h-1.7l2.32-3.7Z" transform="translate(-40.62 -15.46)"/><path d="M158.34,112.16h5.28v1.44h-3.84v2.16h2.88v1.44h-2.88v.72h3.84v1.44h-5.28Z" transform="translate(-40.62 -15.46)"/><path d="M171.11,112.16h5.28v1.44h-3.84v2.16h2.88v1.44h-2.88v2.16h-1.44Z" transform="translate(-40.62 -15.46)"/><path d="M184.63,119.36h-1.72l-1.26-1.92h-1.13v1.92h-1.44v-7.2h2.64a2.64,2.64,0,0,1,1.39,4.88ZM181.72,116a1.2,1.2,0,0,0,0-2.4h-1.2V116Z" transform="translate(-40.62 -15.46)"/><path d="M192,118.16h-3.7l-.66,1.2H186l4.15-7.6,4.16,7.6h-1.65Zm-.79-1.44-1.06-2-1.07,2Z" transform="translate(-40.62 -15.46)"/><path d="M196.55,112.16h.39l4.41,4.2v-4.2h1.44v7.2h-.39L198,115.15v4.21h-1.44Z" transform="translate(-40.62 -15.46)"/><path d="M210.67,116.86l1.14.87-.15.2a3.6,3.6,0,0,1-2.39,1.4v1h-1.2v-.72h.24v-.27a3.6,3.6,0,0,1,.48-7.17,3.58,3.58,0,0,1,2.87,1.43l.15.19-1.14.87-.15-.19a2.13,2.13,0,0,0-1.73-.86,2.16,2.16,0,1,0,0,4.32,2.14,2.14,0,0,0,1.73-.87Z" transform="translate(-40.62 -15.46)"/><path d="M218.68,118.16H215l-.66,1.2h-1.64l4.15-7.6,4.15,7.6h-1.64Zm-.79-1.44-1.06-2-1.07,2Z" transform="translate(-40.62 -15.46)"/><path d="M224.64,119.36H223.2v-7.2h1.44Z" transform="translate(-40.62 -15.46)"/><path d="M231.76,117.2a2.16,2.16,0,0,1-4.27.49l1.39-.49a.72.72,0,1,0,.72-.72,2.16,2.16,0,1,1,2.1-2.65l-1.38.49a.72.72,0,1,0-.72.72A2.16,2.16,0,0,1,231.76,117.2Z" transform="translate(-40.62 -15.46)"/><path d="M234.44,112.16h5.28v1.44h-3.84v2.16h2.88v1.44h-2.88v.72h3.84v1.44h-5.28Z" transform="translate(-40.62 -15.46)"/><path d="M165.1,16.57c-1.26-.94-1.19-1.65-2.27-.28a10.39,10.39,0,0,1-1.93,1.41c-3.87,2.29-7.59,4.65-11.53,6.83a2.64,2.64,0,0,1-2.13-.27A7,7,0,0,0,143.37,23c-4.8.09-9.07-.22-13.87-.33-1.39,0-2.77-1-4.1-1.41a7.71,7.71,0,0,0-4.3.31,1.61,1.61,0,0,1-1.38-.6,5.09,5.09,0,0,1-.58-1.95c-.43-2.81-2-3.93-4.83-3.49-1.6.26-1.72.65-3.28,1.06-.59.15-2.9,0-3.11.48a1.74,1.74,0,0,0,.93,2.22c.43.18.63,1.43.94,1.79a7.19,7.19,0,0,0,2.16,2c2.83,1.57.37,5.78-2.72,6.08v-.51l.1-.06,2.45-1.7a1.38,1.38,0,0,0,.34-1.9l-1.52-2.18a1.34,1.34,0,0,0-.95-.57.84.84,0,0,0-.41-.08,11.82,11.82,0,0,0-3,.84c-1.35.45-1.73,4.42-1.73,4.42l-.19,2.28a52.48,52.48,0,0,1-1.52,5.55c-.21.7,0,2,.48,2.19.63.32,1.65.68,2.28.27,1.49-1,2.91-2.74,4.34-3.8a3.07,3.07,0,0,1,2-.56,10.61,10.61,0,0,1,3.48,2.44,12.9,12.9,0,0,0,2.73,2.29c3,1.72,5.9,2.2,9,3.71A1.69,1.69,0,0,1,128.24,44c-.72,3.24-2.1,7-2.55,10.33-.2,1.41-.55,3.21.34,4.35,1.35,1.74,1.9,4,2.56,6.19s1.5,4.57,2.12,6.9a1.76,1.76,0,0,1-.62,1.54,32.93,32.93,0,0,1-3.27,1.59c-.32.15-.84.48-.81.64a1.68,1.68,0,0,0,.68,1,2.52,2.52,0,0,0,1.29.27c2.28,0,4.55-.06,6.83-.09,2.08,0,2.38-.32,2.25-2.41a8.06,8.06,0,0,0-.38-1.42c-.5-1.81-1.07-3.6-1.47-5.43-.51-2.27-.55-4.68-1.37-6.81-1-2.67-1.55-4.27.15-7.41a11,11,0,0,0,.38-1.06C135.7,48.4,137,44.71,138.53,41a10.58,10.58,0,0,1,2.79-4.08c2.61-2.17,5.46-4.08,8.28-6,5.42-3.66,10.63-7.14,16.05-10.8.33-.22,1.12-.79,1.41-1,.9-.77-1.17-1.94-2-2.54M135,30.13c-3.48.58-6.78-.2-9.18-3.56l16.8.69.06.42c-2.56.84-5.06,2-7.68,2.45" transform="translate(-40.62 -15.46)"/></svg>