<?xml version="1.0" encoding="utf-8"?>
<!-- Generator: Adobe Illustrator 22.1.0, SVG Export Plug-In . SVG Version: 6.00 Build 0)  -->
<svg version="1.1" id="Calque_1" xmlns="http://www.w3.org/2000/svg" xmlns:xlink="http://www.w3.org/1999/xlink" x="0px" y="0px"
	 viewBox="0 0 283.465 141.732" style="enable-background:new 0 0 283.465 141.732;" xml:space="preserve">
<style type="text/css">
	.st0{fill:#FFFFFF;}
</style>
<g>
	<path class="st0" d="M68.535,88.587c-2.976,2.917-7.024,4.762-11.547,4.762H55.5v5.952l-5.952,5.952H40.62V60.612l5.952-5.952
		H62.94c9.048,0,16.368,7.321,16.368,16.368c0,4.524-1.845,8.631-4.821,11.607C73.535,83.587,69.547,87.575,68.535,88.587z
		 M48.06,56.148v41.665h5.952V85.908h8.928c8.214,0,14.881-6.666,14.881-14.88s-6.667-14.88-14.881-14.88H48.06z M71.868,71.028
		c0-4.94-3.988-8.928-8.928-8.928h-8.928v17.856h8.928C67.88,79.956,71.868,75.968,71.868,71.028z M55.5,78.468V69.54h1.488
		c4.107,0,7.44,3.333,7.44,7.44c0,0.476-0.059,0.952-0.119,1.369c-0.476,0.059-0.893,0.119-1.369,0.119H55.5z"/>
	<path class="st0" d="M114.067,101.325c-2.44,2.44-5.773,3.928-9.464,3.928c-6.369,0-11.666-4.405-13.035-10.357l5.952-5.952
		l4.881-1.726c-6.369-1.072-11.19-6.548-11.19-13.214c0-3.69,1.488-7.023,3.928-9.464c1.012-1.012,4.94-4.94,5.952-5.952
		c2.44-2.44,5.774-3.928,9.464-3.928c6.369,0,11.666,4.405,13.035,10.357l-5.952,5.952l-4.881,1.726
		c6.369,1.072,11.19,6.547,11.19,13.214c0,3.69-1.488,7.024-3.928,9.464C119.007,96.384,115.079,100.313,114.067,101.325z
		 M116.151,66.088l5.654-2.024c-1.667-4.583-6.071-7.916-11.249-7.916c-6.607,0-11.904,5.357-11.904,11.904
		c0,6.607,5.298,11.904,11.904,11.904c3.273,0,5.952,2.678,5.952,5.952s-2.678,5.952-5.952,5.952c-2.619,0-4.821-1.667-5.595-3.988
		l-5.655,2.024c1.667,4.583,6.071,7.916,11.25,7.916c6.547,0,11.904-5.298,11.904-11.904c0-6.547-5.357-11.904-11.904-11.904
		c-3.274,0-5.952-2.678-5.952-5.952c0-3.274,2.678-5.952,5.952-5.952C113.115,62.1,115.377,63.767,116.151,66.088z M106.508,69.957
		c0.476,0.952,1.19,1.667,2.143,2.143C108.175,71.147,107.46,70.433,106.508,69.957z M108.651,89.956
		c-0.476-0.952-1.191-1.667-2.143-2.143C106.984,88.766,107.698,89.48,108.651,89.956z"/>
	<path class="st0" d="M175.373,101.384c-2.441,2.381-5.774,3.869-9.464,3.869h-25.296V60.612l5.952-5.952h22.321
		c7.381,0,13.393,6.012,13.393,13.393c0,2.678-0.774,5.178-2.143,7.321c3.096,2.44,5.119,6.25,5.119,10.535
		c0,3.69-1.488,7.024-3.929,9.464C180.313,96.384,176.385,100.372,175.373,101.384z M180.79,68.052
		c0-6.548-5.357-11.904-11.904-11.904h-20.833v41.665h23.809c6.548,0,11.904-5.298,11.904-11.904c0-4.345-2.321-8.095-5.774-10.178
		C179.718,73.647,180.79,70.969,180.79,68.052z M154.005,62.1v11.904h14.88c3.274,0,5.952-2.678,5.952-5.952
		c0-3.274-2.679-5.952-5.952-5.952H154.005z M177.813,85.908c0-3.274-2.678-5.952-5.952-5.952h-17.856v11.904h17.856
		C175.135,91.861,177.813,89.182,177.813,85.908z M155.433,87.397c3.571,0.059,6.964,0,10.476,0c1.964,0,3.572,1.25,4.226,2.976
		h-14.702V87.397z M167.159,72.516h-11.666V69.54h7.441C164.897,69.54,166.505,70.79,167.159,72.516z"/>
	<path class="st0" d="M240.607,63.588l-5.952,5.952h-17.857v7.44h17.857v8.928l-5.952,5.952h-11.904v7.44l-5.952,5.952h-8.928
		V60.612l5.952-5.952h32.737V63.588z M239.119,62.1v-5.952h-29.761v41.665h5.952V84.421h17.856v-5.952h-17.856V62.1H239.119z"/>
</g>
<g>
	<path class="st0" d="M43.492,117.437v1.92h-1.44v-7.2h2.64c1.459,0,2.64,1.181,2.64,2.64c0,1.459-1.181,2.64-2.64,2.64H43.492z
		 M44.692,115.997c0.662,0,1.2-0.537,1.2-1.2c0-0.662-0.538-1.2-1.2-1.2h-1.2v2.4H44.692z"/>
	<path class="st0" d="M53.716,118.157h-3.705l-0.653,1.2h-1.642l4.147-7.593l4.157,7.593h-1.642L53.716,118.157z M52.929,116.717
		l-1.066-1.958l-1.065,1.958H52.929z"/>
	<path class="st0" d="M63.787,119.357h-1.718l-1.257-1.92h-1.133v1.92h-1.44v-7.2h2.64c1.459,0,2.64,1.181,2.64,2.64
		c0,0.95-0.499,1.776-1.248,2.246L63.787,119.357z M60.878,115.997c0.662,0,1.2-0.537,1.2-1.2c0-0.662-0.538-1.2-1.2-1.2h-1.2v2.4
		H60.878z"/>
	<path class="st0" d="M67.972,119.357h-1.44v-7.2h1.44V119.357z"/>
	<path class="st0" d="M75.076,117.197c0,1.19-0.97,2.16-2.16,2.16c-1.027,0-1.882-0.71-2.103-1.67l1.382-0.49
		c0,0.394,0.326,0.72,0.72,0.72c0.393,0,0.72-0.326,0.72-0.72c0-0.393-0.327-0.72-0.72-0.72c-1.19,0-2.16-0.969-2.16-2.16
		s0.97-2.16,2.16-2.16c1.027,0,1.882,0.71,2.102,1.67l-1.382,0.49c0-0.394-0.327-0.72-0.72-0.72c-0.394,0-0.72,0.326-0.72,0.72
		c0,0.393,0.326,0.72,0.72,0.72C74.107,115.037,75.076,116.006,75.076,117.197z"/>
	<path class="st0" d="M85.934,117.197c0,1.19-0.97,2.16-2.16,2.16c-1.027,0-1.882-0.71-2.103-1.67l1.382-0.49
		c0,0.394,0.326,0.72,0.72,0.72c0.393,0,0.72-0.326,0.72-0.72c0-0.393-0.327-0.72-0.72-0.72c-1.19,0-2.16-0.969-2.16-2.16
		s0.97-2.16,2.16-2.16c1.027,0,1.882,0.71,2.102,1.67l-1.382,0.49c0-0.394-0.327-0.72-0.72-0.72c-0.394,0-0.72,0.326-0.72,0.72
		c0,0.393,0.326,0.72,0.72,0.72C84.964,115.037,85.934,116.006,85.934,117.197z"/>
	<path class="st0" d="M93.086,118.157H89.38l-0.653,1.2h-1.642l4.147-7.593l4.157,7.593h-1.642L93.086,118.157z M92.298,116.717
		l-1.066-1.958l-1.065,1.958H92.298z"/>
	<path class="st0" d="M99.863,119.357h-0.432l-3.936-7.2h1.642l2.515,4.598l2.506-4.598h1.642L99.863,119.357z"/>
	<path class="st0" d="M108.752,118.157h-3.705l-0.653,1.2h-1.642l4.147-7.593l4.157,7.593h-1.642L108.752,118.157z M107.965,116.717
		l-1.066-1.958l-1.065,1.958H107.965z"/>
	<path class="st0" d="M111.642,112.157h6.24v1.44h-2.4v5.76h-1.44v-5.76h-2.4V112.157z"/>
	<path class="st0" d="M120.484,112.157h5.28v1.44h-3.84v2.16h2.88v1.44h-2.88v0.72h3.84v1.44h-5.28V112.157z"/>
	<path class="st0" d="M139.501,117.197c0,1.19-0.969,2.16-2.16,2.16h-4.08v-7.2h3.6c1.19,0,2.16,0.97,2.16,2.16
		c0,0.432-0.125,0.835-0.346,1.181C139.175,115.891,139.501,116.505,139.501,117.197z M137.341,117.917
		c0.393,0,0.72-0.326,0.72-0.72c0-0.393-0.326-0.72-0.72-0.72h-2.65v1.44H137.341z M136.861,115.037c0.393,0,0.72-0.327,0.72-0.72
		c0-0.394-0.326-0.72-0.72-0.72h-2.16v1.44H136.861z"/>
	<path class="st0" d="M144.839,119.357c-1.988,0-3.6-1.613-3.6-3.6c0-1.987,1.613-3.6,3.6-3.6c1.987,0,3.6,1.613,3.6,3.6
		C148.439,117.744,146.826,119.357,144.839,119.357z M142.679,115.757c0,1.191,0.969,2.16,2.16,2.16c1.19,0,2.16-0.969,2.16-2.16
		c0-1.19-0.97-2.16-2.16-2.16C143.648,113.597,142.679,114.566,142.679,115.757z"/>
	<path class="st0" d="M149.61,112.157h1.699l1.354,2.15l1.344-2.15h1.699l-2.199,3.504l2.323,3.696h-1.699l-1.469-2.342
		l-1.469,2.342h-1.699l2.314-3.696L149.61,112.157z"/>
	<path class="st0" d="M158.336,112.157h5.28v1.44h-3.84v2.16h2.88v1.44h-2.88v0.72h3.84v1.44h-5.28V112.157z"/>
	<path class="st0" d="M171.113,112.157h5.28v1.44h-3.84v2.16h2.88v1.44h-2.88v2.16h-1.44V112.157z"/>
	<path class="st0" d="M184.63,119.357h-1.719l-1.257-1.92h-1.133v1.92h-1.44v-7.2h2.64c1.459,0,2.64,1.181,2.64,2.64
		c0,0.95-0.499,1.776-1.248,2.246L184.63,119.357z M181.722,115.997c0.662,0,1.2-0.537,1.2-1.2c0-0.662-0.538-1.2-1.2-1.2h-1.2v2.4
		H181.722z"/>
	<path class="st0" d="M192.032,118.157h-3.706l-0.652,1.2h-1.641l4.147-7.593l4.156,7.593h-1.641L192.032,118.157z M191.245,116.717
		l-1.066-1.958l-1.066,1.958H191.245z"/>
	<path class="st0" d="M196.553,112.157h0.384l4.416,4.205v-4.205h1.44v7.2H202.4l-4.406-4.205v4.205h-1.44V112.157z"/>
	<path class="st0" d="M210.665,116.861l1.142,0.873l-0.144,0.192c-0.566,0.749-1.411,1.267-2.391,1.402v0.989h-1.199v-0.72h0.239
		v-0.269c-1.756-0.24-3.119-1.747-3.119-3.571c0-1.987,1.613-3.6,3.599-3.6c1.171,0,2.217,0.566,2.871,1.43l0.144,0.192
		l-1.142,0.874l-0.144-0.192c-0.394-0.528-1.017-0.864-1.728-0.864c-1.19,0-2.159,0.969-2.159,2.16c0,1.191,0.969,2.16,2.159,2.16
		c0.711,0,1.334-0.336,1.728-0.864L210.665,116.861z"/>
	<path class="st0" d="M218.681,118.157h-3.706l-0.652,1.2h-1.642l4.148-7.593l4.156,7.593h-1.641L218.681,118.157z M217.894,116.717
		l-1.066-1.958l-1.066,1.958H217.894z"/>
	<path class="st0" d="M224.643,119.357h-1.44v-7.2h1.44V119.357z"/>
	<path class="st0" d="M231.757,117.197c0,1.19-0.97,2.16-2.16,2.16c-1.028,0-1.882-0.71-2.103-1.67l1.383-0.49
		c0,0.394,0.326,0.72,0.72,0.72c0.394,0,0.72-0.326,0.72-0.72c0-0.393-0.326-0.72-0.72-0.72c-1.191,0-2.16-0.969-2.16-2.16
		s0.969-2.16,2.16-2.16c1.027,0,1.881,0.71,2.102,1.67l-1.382,0.49c0-0.394-0.326-0.72-0.72-0.72c-0.394,0-0.72,0.326-0.72,0.72
		c0,0.393,0.326,0.72,0.72,0.72C230.787,115.037,231.757,116.006,231.757,117.197z"/>
	<path class="st0" d="M234.445,112.157h5.28v1.44h-3.84v2.16h2.88v1.44h-2.88v0.72h3.84v1.44h-5.28V112.157z"/>
</g>
<path class="st0" d="M165.095,16.57c-1.251-0.943-1.181-1.653-2.27-0.285c-0.336,0.423-1.465,1.139-1.923,1.41
	c-3.874,2.297-7.591,4.652-11.53,6.832c-0.52,0.287-1.553,0.077-2.134-0.266c-1.219-0.719-2.367-1.27-3.864-1.242
	c-4.799,0.092-9.077-0.218-13.875-0.324c-1.393-0.031-2.767-0.95-4.101-1.41c-1.233-0.425-2.935-0.101-4.3,0.31
	c-0.382,0.115-1.137-0.241-1.378-0.607c-0.357-0.543-0.474-1.277-0.577-1.948c-0.432-2.813-2.022-3.929-4.83-3.485
	c-1.599,0.253-1.72,0.642-3.284,1.052c-0.586,0.154-2.894,0.015-3.108,0.481c-0.344,0.748,0.015,1.817,0.935,2.22
	c0.427,0.187,0.628,1.432,0.938,1.798c0.715,0.846,1.194,1.423,2.156,1.956c2.828,1.567,0.366,5.784-2.716,6.075l-0.004-0.06v-0.447
	c0.034-0.02,0.067-0.04,0.1-0.062l2.447-1.699c0.615-0.428,0.769-1.281,0.342-1.896l-1.516-2.184
	c-0.23-0.33-0.583-0.527-0.956-0.572c-0.127-0.059-0.262-0.086-0.407-0.071c-1.218,0.129-1.667,0.385-3.012,0.833
	c-1.345,0.449-1.731,4.422-1.731,4.422l-0.19,2.285c-0.369,1.932-0.934,3.64-1.517,5.549c-0.211,0.691,0.047,1.971,0.479,2.188
	c0.629,0.317,1.647,0.679,2.28,0.27c1.489-0.963,2.911-2.742,4.34-3.805c0.465-0.346,1.629-0.736,2.036-0.553
	c1.683,0.76,2.327,1.355,3.475,2.435c1.94,1.827,2.131,1.951,2.728,2.291c3.015,1.718,5.897,2.196,9.018,3.715
	c0.983,0.479,1.361,1.023,1.095,2.216c-0.72,3.236-2.106,7.048-2.554,10.331c-0.193,1.413-0.546,3.21,0.344,4.353
	c1.346,1.731,1.902,3.952,2.563,6.182c0.684,2.307,1.496,4.578,2.118,6.901c0.12,0.446-0.225,1.295-0.618,1.546
	c-1.014,0.648-2.184,1.049-3.274,1.584c-0.317,0.156-0.844,0.484-0.812,0.639c0.076,0.376,0.356,0.807,0.682,1.009
	c0.354,0.218,0.853,0.279,1.289,0.277c2.277-0.01,4.555-0.067,6.833-0.095c2.083-0.026,2.382-0.319,2.244-2.406
	c-0.032-0.481-0.246-0.949-0.377-1.423c-0.498-1.809-1.069-3.603-1.475-5.432c-0.502-2.264-0.548-4.682-1.369-6.81
	c-1.03-2.669-1.543-4.268,0.153-7.405c0.134-0.249,0.282-0.787,0.381-1.067c1.328-3.779,2.672-7.466,4.163-11.179
	c0.603-1.502,1.566-3.052,2.789-4.073c2.61-2.177,5.455-4.083,8.276-5.991c5.418-3.663,10.629-7.139,16.047-10.801
	c0.332-0.224,1.126-0.786,1.411-1.025C167.964,18.339,165.889,17.169,165.095,16.57 M135.015,30.127
	c-3.476,0.581-6.772-0.202-9.177-3.561c5.601,0.231,11.203,0.461,16.804,0.692c0.019,0.14,0.039,0.279,0.058,0.418
	C140.144,28.52,137.641,29.689,135.015,30.127"/>
</svg>
